<?xml version="1.0" standalone="no"?>
<!DOCTYPE svg PUBLIC "-//W3C//DTD SVG 20010904//EN"
 "http://www.w3.org/TR/2001/REC-SVG-20010904/DTD/svg10.dtd">
<svg version="1.0" xmlns="http://www.w3.org/2000/svg"
 width="735.000000pt" height="752.000000pt" viewBox="0 0 735.000000 752.000000"
 preserveAspectRatio="xMidYMid meet">

<g transform="translate(0.000000,752.000000) scale(0.100000,-0.100000)"
fill="#000000" stroke="none">
<path d="M676 6000 c-50 -144 -47 -488 6 -660 22 -71 58 -147 93 -195 31 -42
153 -165 220 -220 70 -58 239 -226 275 -274 14 -18 30 -38 35 -44 6 -7 26 -34
45 -62 19 -27 37 -52 40 -55 13 -13 60 -91 60 -100 0 -5 4 -10 9 -10 5 0 16
-15 25 -32 9 -18 36 -69 61 -113 41 -73 75 -140 125 -250 59 -130 74 -165 92
-215 21 -60 36 -96 49 -122 5 -10 9 -27 9 -37 0 -11 5 -23 10 -26 6 -3 10 -15
10 -26 0 -10 4 -27 9 -37 11 -18 51 -178 70 -277 7 -33 16 -74 22 -91 5 -17 9
-44 9 -62 0 -17 5 -34 10 -37 6 -3 10 -22 10 -42 0 -20 4 -50 10 -67 5 -17 17
-58 27 -91 15 -53 86 -202 102 -215 3 -3 24 -27 46 -55 47 -59 81 -91 155
-148 30 -23 57 -45 58 -49 2 -5 10 -8 18 -8 8 0 14 -4 14 -10 0 -5 4 -10 10
-10 5 0 31 -15 57 -33 27 -18 62 -39 78 -47 17 -8 32 -17 35 -20 3 -3 64 -35
135 -72 72 -36 164 -84 205 -105 41 -21 77 -41 78 -45 2 -5 7 -8 12 -8 14 0
150 -81 150 -90 0 -8 -26 -3 -155 30 -91 23 -288 37 -324 23 -23 -9 -21 -11
25 -22 78 -19 187 -52 206 -62 10 -5 25 -9 33 -9 8 0 23 -4 33 -9 28 -15 90
-41 97 -41 13 0 180 -84 183 -92 2 -4 8 -8 13 -8 6 0 35 -16 65 -35 30 -19 58
-35 63 -35 5 0 11 -3 13 -8 2 -4 41 -34 88 -67 47 -32 105 -78 129 -102 49
-49 65 -54 51 -17 -6 14 -10 36 -10 50 0 13 -4 32 -8 42 -5 9 -22 55 -37 102
-15 47 -31 87 -34 90 -3 3 -16 25 -29 50 -26 52 -65 102 -137 175 -69 71 -132
115 -285 198 -158 86 -204 112 -267 153 -29 19 -55 34 -58 34 -6 0 -57 44
-119 105 -64 62 -116 126 -116 143 0 6 -4 12 -9 12 -5 0 -14 14 -21 30 -7 17
-16 30 -21 30 -5 0 -9 5 -9 10 0 6 -10 31 -23 58 -12 26 -28 67 -36 92 -7 25
-17 54 -21 65 -9 20 -12 36 -30 155 -5 36 -14 182 -20 325 -5 143 -14 296 -20
340 -15 118 -32 209 -42 220 -4 5 -8 19 -8 31 0 13 -4 26 -10 29 -5 3 -10 17
-10 30 0 13 -4 26 -9 29 -4 3 -11 19 -14 35 -5 25 -20 57 -81 178 -6 13 -14
23 -18 23 -5 0 -8 5 -8 10 0 22 -61 106 -140 194 -66 74 -80 87 -135 131 -27
22 -52 42 -55 45 -18 19 -90 70 -98 70 -6 0 -12 3 -14 8 -4 9 -188 130 -240
157 -21 11 -38 23 -38 27 0 5 -5 8 -11 8 -6 0 -60 34 -120 75 -60 41 -112 75
-116 75 -3 0 -13 8 -22 18 -9 9 -34 31 -56 47 -112 83 -285 262 -285 294 0 6
-4 11 -9 11 -12 0 -93 161 -108 215 -7 22 -15 51 -19 65 -4 14 -10 77 -13 140
-4 84 -8 108 -15 90z"/>
<path d="M6708 5990 c-4 -14 -9 -62 -13 -106 -3 -45 -9 -95 -14 -110 -5 -16
-15 -49 -22 -74 -20 -67 -89 -199 -139 -265 -34 -45 -209 -214 -265 -255 -33
-25 -69 -53 -79 -62 -11 -10 -25 -18 -32 -18 -7 0 -14 -3 -16 -7 -1 -5 -30
-26 -63 -48 -33 -22 -61 -43 -63 -47 -2 -5 -8 -8 -13 -8 -5 0 -33 -16 -63 -35
-30 -19 -60 -35 -66 -35 -5 0 -10 -4 -10 -8 0 -5 -12 -15 -27 -23 -31 -15
-165 -101 -173 -110 -3 -3 -27 -21 -55 -39 -72 -49 -89 -64 -200 -175 -56 -55
-110 -115 -120 -133 -11 -17 -23 -32 -27 -32 -4 0 -8 -5 -8 -10 0 -6 -15 -34
-33 -63 -39 -62 -84 -156 -117 -242 -51 -135 -89 -363 -90 -550 -1 -165 -17
-403 -36 -505 -17 -100 -37 -176 -47 -186 -4 -4 -7 -16 -7 -26 0 -10 -4 -18
-10 -18 -5 0 -10 -6 -10 -14 0 -19 -54 -118 -98 -181 -34 -47 -154 -171 -198
-205 -54 -42 -134 -89 -264 -158 -47 -25 -103 -56 -125 -69 -22 -13 -48 -26
-57 -30 -10 -3 -18 -9 -18 -14 0 -5 -7 -9 -15 -9 -8 0 -15 -3 -15 -8 0 -4 -16
-16 -35 -26 -19 -11 -35 -23 -35 -28 0 -4 -5 -8 -10 -8 -16 0 -102 -88 -151
-156 -58 -78 -95 -156 -124 -254 -9 -30 -21 -65 -26 -78 -5 -13 -9 -41 -9 -63
l0 -41 43 40 c74 71 112 102 124 102 6 0 13 4 15 8 5 15 152 109 244 158 49
26 93 51 98 55 6 5 16 9 23 9 7 0 36 11 65 25 28 14 58 25 65 25 7 0 21 4 31
9 28 14 66 29 92 36 143 37 203 54 207 59 13 13 -58 18 -151 12 -94 -6 -225
-30 -304 -55 -49 -15 -37 7 24 43 80 47 104 60 224 122 63 32 117 61 120 64 3
3 43 24 90 48 101 50 144 74 148 85 2 4 8 7 14 7 9 0 148 87 158 99 3 3 21 18
40 32 56 42 180 169 180 184 0 3 9 15 20 27 25 27 90 162 90 187 0 11 5 23 10
26 6 3 10 21 10 40 0 19 5 37 10 40 6 3 10 17 10 30 0 14 5 44 10 67 6 24 22
99 35 168 14 69 30 142 35 163 6 20 15 56 21 80 6 23 15 50 20 59 5 10 9 26 9
36 0 10 4 22 8 28 5 5 17 36 27 69 10 33 21 64 26 69 5 6 9 16 9 23 0 7 9 35
21 61 12 26 25 56 29 67 35 85 64 148 124 265 38 74 74 145 80 157 6 13 14 23
19 23 4 0 7 5 7 11 0 14 109 183 121 187 5 2 9 10 9 18 0 8 5 14 10 14 6 0 10
5 10 11 0 11 26 46 100 134 37 44 168 173 235 230 76 65 193 180 227 225 41
52 84 146 103 225 9 39 21 86 26 105 21 90 18 292 -9 485 -6 46 -10 54 -14 35z"/>
<path d="M116 5752 c-23 -73 0 -342 44 -507 30 -110 110 -294 146 -336 8 -8
14 -21 14 -27 0 -7 5 -12 10 -12 6 0 10 -7 10 -15 0 -8 5 -15 10 -15 6 0 10
-6 10 -14 0 -8 3 -16 8 -18 4 -1 23 -23 43 -48 67 -83 182 -194 254 -245 16
-11 34 -26 41 -32 7 -7 16 -13 20 -13 4 0 15 -6 23 -14 9 -8 33 -23 54 -35 20
-12 54 -31 75 -43 20 -11 73 -40 117 -63 118 -61 251 -141 282 -169 6 -6 38
-33 70 -61 32 -27 102 -93 156 -147 93 -94 110 -102 86 -41 -6 15 -15 37 -19
48 -44 113 -196 384 -221 393 -5 2 -9 10 -9 17 0 7 -3 15 -7 17 -5 2 -28 28
-53 58 -39 48 -112 129 -176 194 -11 12 -46 44 -79 71 -32 28 -63 55 -69 60
-6 6 -29 23 -51 39 -22 17 -42 33 -45 36 -3 3 -27 22 -55 41 -27 18 -52 36
-55 40 -3 3 -23 18 -45 34 -22 17 -42 32 -45 35 -3 3 -30 25 -60 50 -83 67
-176 158 -223 220 -23 30 -45 57 -48 60 -10 9 -94 154 -116 200 -44 96 -56
131 -70 218 -6 38 -19 50 -27 24z"/>
<path d="M7252 5758 c-7 -7 -12 -21 -12 -31 0 -39 -21 -104 -64 -200 -14 -32
-26 -62 -26 -67 0 -6 -4 -10 -10 -10 -5 0 -10 -4 -10 -9 0 -20 -82 -146 -130
-200 -93 -105 -247 -251 -266 -251 -3 0 -19 -13 -37 -30 -18 -16 -35 -30 -38
-30 -3 0 -15 -8 -26 -17 -11 -10 -33 -28 -49 -40 -192 -143 -201 -150 -324
-273 -107 -106 -154 -160 -205 -230 -22 -30 -42 -57 -45 -60 -12 -9 -100 -160
-100 -170 0 -5 -4 -10 -10 -10 -5 0 -10 -9 -10 -20 0 -11 -4 -20 -10 -20 -5 0
-10 -9 -10 -20 0 -11 -4 -20 -10 -20 -5 0 -10 -6 -10 -14 0 -8 -6 -27 -14 -43
-27 -53 -59 -144 -52 -150 4 -4 14 4 23 17 22 32 158 166 218 215 27 22 53 45
59 50 18 17 117 86 151 105 18 10 43 24 56 32 13 7 26 15 29 18 3 3 41 23 85
45 44 21 99 52 122 67 23 15 44 28 48 28 9 0 90 54 93 63 2 4 10 7 18 7 8 0
14 4 14 8 0 4 13 15 29 25 52 30 271 254 271 276 0 5 4 11 8 13 9 4 51 61 71
98 90 164 124 251 170 438 24 97 42 422 23 422 -4 0 -13 -5 -20 -12z"/>
<path d="M149 4853 c-8 -75 29 -330 53 -357 4 -6 8 -18 8 -28 0 -10 4 -26 9
-36 4 -9 21 -42 36 -72 39 -79 88 -160 97 -160 4 0 8 -5 8 -10 0 -22 175 -200
196 -200 4 0 21 -11 38 -23 36 -28 155 -87 173 -87 8 0 21 -4 31 -9 19 -10 53
-20 187 -52 135 -32 229 -65 335 -116 52 -26 97 -49 100 -52 3 -3 17 -12 32
-20 35 -18 214 -153 240 -180 10 -12 21 -21 24 -21 7 0 -6 43 -15 50 -3 3 -13
19 -21 35 -16 34 -99 168 -109 175 -3 3 -19 22 -34 43 -53 70 -162 178 -232
230 -38 29 -71 55 -73 59 -2 5 -8 8 -13 8 -5 0 -32 15 -61 33 -29 19 -68 40
-85 48 -18 8 -33 17 -33 21 0 5 -6 8 -12 8 -17 0 -202 92 -206 102 -2 5 -8 8
-13 8 -11 0 -153 92 -157 103 -2 4 -10 7 -17 7 -7 0 -15 3 -17 8 -1 4 -28 26
-58 49 -90 69 -224 204 -300 303 -19 25 -38 47 -42 48 -5 2 -8 8 -8 13 0 6 -9
19 -20 31 -11 12 -20 28 -20 35 0 14 -19 19 -21 6z"/>
<path d="M7207 4837 c-10 -12 -28 -39 -39 -59 -12 -21 -25 -38 -30 -38 -4 0
-8 -5 -8 -10 0 -25 -205 -234 -310 -316 -41 -32 -76 -62 -78 -66 -2 -4 -8 -8
-14 -8 -5 0 -47 -24 -91 -53 -45 -29 -145 -84 -222 -122 -320 -159 -463 -277
-628 -517 -75 -108 -123 -195 -114 -205 4 -3 26 12 50 33 58 52 81 70 105 83
11 6 26 17 34 23 18 18 117 78 128 78 5 0 10 3 12 8 3 7 56 33 158 79 68 31
251 82 390 110 53 10 241 101 289 140 94 76 250 255 251 289 0 5 9 20 20 34
11 14 20 33 20 43 0 9 5 17 10 17 6 0 10 8 10 18 0 10 3 22 7 26 24 24 68 221
79 359 7 81 1 92 -29 54z"/>
<path d="M108 4228 c7 -7 12 -22 12 -34 0 -13 5 -26 10 -29 6 -3 10 -13 10
-20 0 -13 22 -65 73 -175 29 -61 108 -194 119 -198 4 -2 8 -9 8 -16 0 -15 68
-95 145 -171 76 -74 92 -87 174 -139 63 -40 92 -55 144 -75 12 -4 33 -13 47
-19 25 -10 221 -55 290 -67 33 -5 92 -13 268 -35 112 -14 171 -26 222 -45 25
-9 55 -19 68 -22 12 -3 22 -9 22 -14 0 -5 9 -9 20 -9 11 0 20 -4 20 -10 0 -5
6 -10 13 -10 7 0 23 -9 35 -20 12 -12 23 -16 27 -10 3 6 1 10 -4 10 -6 0 -11
6 -11 14 0 8 -3 16 -7 18 -5 2 -27 28 -50 59 -102 137 -273 282 -412 349 -65
31 -211 80 -240 80 -11 0 -23 5 -26 10 -3 6 -15 10 -26 10 -31 0 -207 57 -289
92 -88 39 -235 113 -238 121 -2 4 -8 7 -14 7 -29 0 -228 157 -297 234 -14 16
-33 36 -42 45 -8 9 -26 31 -38 49 -12 17 -27 32 -34 32 -8 0 -8 -3 1 -12z"/>
<path d="M7260 4233 c-1 -19 -188 -223 -204 -223 -4 0 -14 -7 -23 -16 -23 -22
-160 -114 -172 -114 -5 0 -11 -4 -13 -9 -2 -7 -179 -95 -263 -131 -47 -20
-175 -60 -194 -60 -11 0 -23 -4 -26 -10 -3 -5 -19 -10 -35 -10 -16 0 -32 -4
-35 -10 -3 -5 -16 -10 -27 -10 -29 0 -194 -57 -253 -88 -48 -25 -135 -80 -145
-91 -3 -3 -27 -24 -55 -46 -27 -22 -63 -53 -79 -70 -74 -78 -104 -113 -126
-145 -13 -19 -29 -40 -35 -47 -36 -43 -36 -43 -23 -43 7 0 27 9 43 20 38 27
120 65 171 80 58 18 138 31 364 60 180 24 323 53 395 80 163 61 261 125 388
250 48 48 87 92 87 98 0 6 3 12 8 14 12 5 82 105 82 117 0 6 4 11 9 11 5 0 11
8 14 18 3 9 13 28 21 42 20 32 86 178 119 260 5 14 13 33 18 42 5 10 9 22 9
28 0 11 -20 14 -20 3z"/>
<path d="M380 3445 c0 -12 53 -100 94 -155 71 -96 230 -240 265 -240 6 0 11
-4 11 -10 0 -5 9 -10 20 -10 11 0 20 -4 20 -10 0 -5 8 -10 18 -10 10 0 22 -4
28 -8 16 -15 145 -52 219 -62 39 -6 165 -15 280 -20 311 -15 509 -34 532 -52
7 -5 17 -7 23 -3 6 4 -5 20 -27 41 -43 39 -168 124 -182 124 -5 0 -11 3 -13 8
-4 9 -162 82 -178 82 -6 0 -18 4 -28 9 -31 15 -88 31 -115 31 -14 0 -28 4 -31
9 -3 4 -36 11 -73 14 -38 3 -117 13 -178 22 -60 10 -132 20 -160 25 -27 4 -70
14 -95 22 -25 8 -65 21 -90 28 -25 8 -49 17 -55 22 -5 4 -15 8 -22 8 -19 0
-163 70 -184 89 -23 21 -79 54 -79 46z"/>
<path d="M6960 3424 c-25 -24 -175 -102 -240 -124 -19 -7 -44 -16 -55 -20 -57
-24 -196 -53 -355 -76 -63 -8 -142 -20 -175 -25 -33 -5 -76 -12 -95 -15 -19
-3 -44 -9 -55 -13 -11 -5 -51 -18 -90 -31 -122 -39 -320 -155 -403 -236 -15
-16 3 -30 21 -16 20 16 241 38 532 51 318 16 384 28 555 104 56 25 171 112
229 172 60 63 151 192 151 214 0 6 5 11 10 11 6 0 10 7 10 15 0 21 -11 18 -40
-11z"/>
<path d="M1340 2640 c-76 -9 -94 -15 -137 -47 -42 -31 -52 -79 -27 -128 17
-32 35 -46 96 -77 25 -12 168 -10 168 2 0 6 11 10 25 10 14 0 33 4 43 10 59
33 147 51 450 92 50 6 92 16 92 20 0 4 -9 8 -20 8 -11 0 -28 4 -38 10 -25 14
-295 77 -382 89 -112 16 -197 19 -270 11z"/>
<path d="M5870 2639 c-112 -8 -179 -19 -315 -55 -55 -14 -115 -28 -132 -31
-18 -3 -33 -9 -33 -14 0 -5 -11 -9 -25 -9 -14 0 -25 -4 -25 -10 0 -5 10 -10
22 -10 12 0 47 -4 77 -10 31 -5 112 -17 180 -26 68 -8 156 -27 195 -41 39 -14
83 -27 99 -30 15 -3 30 -9 33 -14 3 -5 39 -9 79 -9 116 0 195 54 195 133 0
103 -107 142 -350 126z"/>
<path d="M1765 2371 c-16 -5 -59 -14 -95 -20 -74 -14 -125 -35 -157 -64 -49
-44 -18 -140 55 -168 47 -18 153 11 196 54 7 7 30 26 51 42 21 17 43 35 49 40
33 30 191 90 271 102 22 3 47 9 55 14 19 11 -384 10 -425 0z"/>
<path d="M5235 2364 c202 -61 261 -85 310 -129 96 -86 156 -117 222 -119 54 0
103 19 103 41 0 7 4 13 9 13 5 0 13 18 19 40 5 23 6 40 1 40 -5 0 -9 6 -9 13
0 16 -55 53 -110 72 -78 28 -168 37 -385 40 -199 3 -207 3 -160 -11z"/>
<path d="M2215 2269 c-119 -12 -265 -57 -265 -81 0 -4 -5 -8 -11 -8 -20 0 -69
-64 -80 -103 -6 -24 -7 -49 -1 -65 13 -39 66 -72 118 -72 37 0 47 5 72 36 16
20 47 69 67 109 21 41 48 85 59 98 24 27 89 67 110 67 7 0 19 7 26 15 14 17
21 17 -95 4z"/>
<path d="M5073 2265 c9 -8 20 -15 26 -15 37 0 141 -86 141 -116 0 -7 3 -14 8
-16 4 -1 22 -33 40 -71 42 -83 70 -107 128 -107 35 0 49 6 80 35 35 33 36 37
30 82 -10 78 -69 132 -196 181 -37 14 -125 31 -204 37 -61 5 -67 4 -53 -10z"/>
</g>
</svg>
